<svg id="Group_35" data-name="Group 35" xmlns="http://www.w3.org/2000/svg" xmlns:xlink="http://www.w3.org/1999/xlink" width="375.872" height="224.339" viewBox="0 0 375.872 224.339">
  <defs>
    <linearGradient id="linear-gradient" y1="0.5" x2="1" y2="0.5" gradientUnits="objectBoundingBox">
      <stop offset="0" stop-color="#d80005"/>
      <stop offset="1" stop-color="#f81d20"/>
    </linearGradient>
    <linearGradient id="linear-gradient-3" x1="0" y1="0.5" x2="1" y2="0.5" xlink:href="#linear-gradient"/>
    <linearGradient id="linear-gradient-4" x1="0" y1="0.5" x2="1" y2="0.5" xlink:href="#linear-gradient"/>
  </defs>
  <path id="Path_1" data-name="Path 1" d="M4875.807,839.242c-38.565-27.138-76.417-44.041-113.792-42.615-11.9.952-22.617,4.525-31.425,10.713-14.76,10.238-24.76,27.855-28.09,53.8-6.9,79.036,31.185,108.318,63.563,129.982,33.8,19.521,73.084,29.521,116.647,29.759-39.041-10.474-70.467-24.282-110.222-52.137-26.663-22.852-43.564-45.468-42.609-89.51C4730.589,814.009,4767.488,798.771,4875.807,839.242Z" transform="translate(-4701.68 -796.544)" fill="url(#linear-gradient)"/>
  <path id="Path_2" data-name="Path 2" d="M4764.923,839.482c38.565-27.377,76.419-44.281,113.556-42.854,31.423,2.382,54.039,22.855,59.515,64.279,6.9,79.036-31.184,108.318-63.561,129.978-33.568,19.76-73.084,29.52-116.413,29.76,38.328-10.474,69.514-23.807,108.795-51.185a22.08,22.08,0,0,1,2.856-2.139c25.948-22.378,42.374-44.994,41.421-88.084C4910.14,814.244,4873.242,799.009,4764.923,839.482Z" transform="translate(-4562.941 -796.544)" fill="url(#linear-gradient)"/>
  <g id="Group_1" data-name="Group 1" transform="translate(135.898 97.635)">
    <path id="Path_43" data-name="Path 43" d="M4752.4,850.972a9.687,9.687,0,0,1-4.527-.952,9.425,9.425,0,0,1-3.567-2.382,8.732,8.732,0,0,1-2.383-3.808,10.661,10.661,0,0,1-.951-4.761h0a13.8,13.8,0,0,1,.715-4.525,9.309,9.309,0,0,1,2.377-3.809,13.892,13.892,0,0,1,3.573-2.617,9.674,9.674,0,0,1,4.522-.952,10.047,10.047,0,0,1,4.763.952,9.064,9.064,0,0,1,3.335,2.617,12.16,12.16,0,0,1,2.14,3.809,14.976,14.976,0,0,1,.712,4.525V840.5h-16.9a6.193,6.193,0,0,0,2.141,4.287,6.641,6.641,0,0,0,4.283,1.427,7.576,7.576,0,0,0,3.334-.714,19.5,19.5,0,0,0,2.856-1.9l3.1,2.618a15.563,15.563,0,0,1-3.808,3.1A9.983,9.983,0,0,1,4752.4,850.972Zm5.234-13.333a8.472,8.472,0,0,0-.474-2.379,5.108,5.108,0,0,0-1.193-1.9,4.249,4.249,0,0,0-1.665-1.191,7.043,7.043,0,0,0-2.381-.478,5.223,5.223,0,0,0-4.049,1.669,8.836,8.836,0,0,0-1.9,4.283Z" transform="translate(-4740.969 -819.07)" fill="#221c1d"/>
    <path id="Path_44" data-name="Path 44" d="M4763.217,850.324v-2.857a9.534,9.534,0,0,1-2.856,2.382,8.165,8.165,0,0,1-4.287.952,13.942,13.942,0,0,1-3.1-.478,5.664,5.664,0,0,1-2.617-1.43,5.175,5.175,0,0,1-1.665-2.14,6.578,6.578,0,0,1-.712-3.1h0a7.594,7.594,0,0,1,.712-3.335,9.312,9.312,0,0,1,1.9-2.378,8,8,0,0,1,2.856-1.43,18.331,18.331,0,0,1,3.57-.474,15.931,15.931,0,0,1,3.572.236l2.857.717v-.239a4.173,4.173,0,0,0-1.43-3.57,6.784,6.784,0,0,0-4.046-1.191,14.169,14.169,0,0,0-3.331.474c-.955.239-1.9.717-3.095.952l-1.667-4.283c1.187-.478,2.618-.952,3.807-1.43a24.482,24.482,0,0,1,4.762-.474c3.333,0,5.953.713,7.378,2.378,1.671,1.669,2.384,4.048,2.384,6.9v13.569h-5.239v.239Zm.239-9.521c-.717-.239-1.43-.478-2.382-.713a11.551,11.551,0,0,0-2.857-.239,6.05,6.05,0,0,0-3.809.952,2.985,2.985,0,0,0-1.431,2.617h0a2.63,2.63,0,0,0,1.194,2.382,6.756,6.756,0,0,0,3.095.952,7.322,7.322,0,0,0,2.381-.239,4.838,4.838,0,0,0,1.9-.952,6.305,6.305,0,0,0,1.187-1.43,4.442,4.442,0,0,0,.478-1.9V840.8Z" transform="translate(-4723.699 -818.9)" fill="#221c1d"/>
    <path id="Path_45" data-name="Path 45" d="M4755.34,824.827h5.24v31.425h-5.24Z" transform="translate(-4705.587 -824.827)" fill="#221c1d"/>
    <path id="Path_46" data-name="Path 46" d="M4767.476,854.8a8.878,8.878,0,0,1-2.619-.239,9.694,9.694,0,0,1-2.143-1.191,8.27,8.27,0,0,1-1.428-2.143,12.1,12.1,0,0,1-.479-3.092v-11.9h-2.854V831.7h2.854v-6.187h5.239V831.7H4772v4.526h-5.952v10.951a2.528,2.528,0,0,0,2.859,2.856,6.568,6.568,0,0,0,3.093-.716v4.286a8.387,8.387,0,0,1-2.143.952A7.312,7.312,0,0,1,4767.476,854.8Z" transform="translate(-4699.152 -823.133)" fill="#221c1d"/>
    <path id="Path_47" data-name="Path 47" d="M4763.178,824.827h5.236v12.142a10.9,10.9,0,0,1,2.856-2.857,8.2,8.2,0,0,1,4.284-1.191c2.617,0,4.523.713,5.954,2.379a9.139,9.139,0,0,1,2.143,6.43v14.521h-5.239V843.4a6.791,6.791,0,0,0-1.19-4.048,5.835,5.835,0,0,0-3.81-1.426,4.845,4.845,0,0,0-3.569,1.426,5.605,5.605,0,0,0-1.429,4.048v12.617h-5.236Z" transform="translate(-4686.282 -824.827)" fill="#221c1d"/>
    <path id="Path_48" data-name="Path 48" d="M4781.957,850.8a10.659,10.659,0,0,1-4.76-.952,20.633,20.633,0,0,1-3.81-2.382,10.4,10.4,0,0,1-2.381-3.808,13.943,13.943,0,0,1-.951-4.526h0a9.66,9.66,0,0,1,.951-4.522,12.855,12.855,0,0,1,2.381-3.808,15.273,15.273,0,0,1,3.81-2.618,10.613,10.613,0,0,1,4.76-.952,11.44,11.44,0,0,1,5.238.952,14.523,14.523,0,0,1,3.808,2.857l-3.1,3.57a25.645,25.645,0,0,0-2.616-2.143,6.938,6.938,0,0,0-3.334-.714,8.527,8.527,0,0,0-2.619.478l-2.141,1.427-1.431,2.143a11.932,11.932,0,0,0-.475,2.857h0a11.932,11.932,0,0,0,.475,2.856,4.956,4.956,0,0,0,1.431,2.382,7.439,7.439,0,0,0,2.141,1.666,4.726,4.726,0,0,0,2.619.474,7.589,7.589,0,0,0,3.334-.713,7.412,7.412,0,0,0,2.616-2.143l3.1,3.1a11.134,11.134,0,0,1-1.663,1.665,17.038,17.038,0,0,1-2.145,1.43,10.023,10.023,0,0,1-2.382.952A8.847,8.847,0,0,1,4781.957,850.8Z" transform="translate(-4669.355 -818.9)" fill="#221c1d"/>
    <path id="Path_49" data-name="Path 49" d="M4792.028,850.157V847.3a9.54,9.54,0,0,1-2.856,2.382,8.175,8.175,0,0,1-4.286.952,13.862,13.862,0,0,1-3.1-.478,5.649,5.649,0,0,1-2.618-1.43,5.161,5.161,0,0,1-1.666-2.14,6.557,6.557,0,0,1-.715-3.1h0a7.567,7.567,0,0,1,.715-3.334,9.194,9.194,0,0,1,1.9-2.379,8,8,0,0,1,2.857-1.43,18.3,18.3,0,0,1,3.57-.474,15.915,15.915,0,0,1,3.57.236l2.86.717v-.239a4.181,4.181,0,0,0-1.43-3.57,6.792,6.792,0,0,0-4.047-1.191,14.208,14.208,0,0,0-3.333.474c-.95.239-1.9.717-3.091.952l-1.433-4.048c1.192-.474,2.622-.952,3.808-1.426a24.489,24.489,0,0,1,4.762-.478c3.335,0,5.952.717,7.381,2.382,1.667,1.666,2.38,4.047,2.38,6.9v13.569Zm.24-9.521c-.715-.239-1.43-.478-2.381-.713a11.551,11.551,0,0,0-2.855-.239,6.056,6.056,0,0,0-3.812.952,2.986,2.986,0,0,0-1.428,2.617h0a2.63,2.63,0,0,0,1.191,2.382,6.761,6.761,0,0,0,3.095.952,7.292,7.292,0,0,0,2.379-.239,4.808,4.808,0,0,0,1.906-.952,6.283,6.283,0,0,0,1.191-1.43,4.507,4.507,0,0,0,.475-1.9v-1.426Z" transform="translate(-4652.763 -818.732)" fill="#221c1d"/>
    <path id="Path_50" data-name="Path 50" d="M4784.148,827.639h5.239v5a8.82,8.82,0,0,1,3.095-4.048,7.811,7.811,0,0,1,5-1.427v5.474h-.238a12.029,12.029,0,0,0-3.1.478,8.527,8.527,0,0,0-2.379,1.666,8.16,8.16,0,0,0-1.667,2.857,9.862,9.862,0,0,0-.477,3.809v8.573h-5.239V827.4h-.238Z" transform="translate(-4634.646 -819.07)" fill="#221c1d"/>
    <path id="Path_51" data-name="Path 51" d="M4799.773,850.972a9.681,9.681,0,0,1-4.526-.952,13.419,13.419,0,0,1-3.57-2.382,8.725,8.725,0,0,1-2.381-3.808,10.682,10.682,0,0,1-.952-4.761h0a13.857,13.857,0,0,1,.716-4.525,9.35,9.35,0,0,1,2.379-3.809,12.507,12.507,0,0,1,3.573-2.617,9.67,9.67,0,0,1,4.522-.952,10.044,10.044,0,0,1,4.762.952,9.058,9.058,0,0,1,3.334,2.617,12.123,12.123,0,0,1,2.141,3.809,14.947,14.947,0,0,1,.713,4.525V840.5h-16.9a6.206,6.206,0,0,0,2.144,4.287,6.644,6.644,0,0,0,4.285,1.427,7.574,7.574,0,0,0,3.331-.714,19.715,19.715,0,0,0,2.857-1.9l3.1,2.618a15.553,15.553,0,0,1-3.81,3.1A9.48,9.48,0,0,1,4799.773,850.972Zm5.234-13.333a8.4,8.4,0,0,0-.474-2.379,5.123,5.123,0,0,0-1.191-1.9,4.24,4.24,0,0,0-1.665-1.191,7.021,7.021,0,0,0-2.381-.478,5.225,5.225,0,0,0-4.048,1.669,8.8,8.8,0,0,0-1.9,4.283Z" transform="translate(-4624.322 -819.07)" fill="#221c1d"/>
  </g>
  <g id="Group_2" data-name="Group 2" transform="translate(111.281 97.928)">
    <g id="Group_10" data-name="Group 10">
      <path id="Path_52" data-name="Path 52" d="M4739.055,843.4v12.617h-5.235V824.827h5.235v12.142" transform="translate(-4733.819 -824.827)" fill="#221c1d"/>
    </g>
    <g id="Group_11" data-name="Group 11" transform="translate(15.948)">
      <path id="Path_53" data-name="Path 53" d="M4743.664,843.4v12.617h-5.238V824.827h5.238v12.142" transform="translate(-4738.426 -824.827)" fill="#221c1d"/>
    </g>
    <g id="Group_12" data-name="Group 12" transform="translate(0.475 12.856)">
      <path id="Path_54" data-name="Path 54" d="M4746.339,828.54h8.33v5.239h-20.713V828.54h8.1" transform="translate(-4733.956 -828.54)" fill="#221c1d"/>
    </g>
  </g>
  <g id="Group_3" data-name="Group 3" transform="translate(62.189 97.3)">
    <path id="Path_56" data-name="Path 56" d="M4724.452,855.746s-.24,2.143-2.144,2.382c0,0-3.094.713-2.618-3.334,0,0,.713-4.522,1.427-7.143,0,0,2.38-9.76,2.622-10,0,0,2.141-7.621,2.617-8.1,0,0,1.429-4.286,3.1-4.761,0,0,2.382-.717,3.334.952a2.471,2.471,0,0,1,.235.952s.238,12.378.715,15a26.527,26.527,0,0,0,.714,3.1s.713-.475,3.1-7.14c0,0-.479-8.1,2.379-9.525,0,0,3.335-1.187,3.809,2.143a14.4,14.4,0,0,1-1.427,6.429s-.714,1.427,1.666,11.187c0,0,1.9,7.856,2.857,9.761,0,0,.713,3.334-3.333,1.9,0,0-2.142-.952-3.334-5.713a75.118,75.118,0,0,1-1.9-9.522s-1.906,5.474-4.047,5.474c0,0-2.857.239-4.522-5.713,0,0-.717-1.665-1.431-7.856,0,0-2.38,4.522-3.331,16.9C4725.165,853.364,4724.452,855.746,4724.452,855.746Z" transform="translate(-4719.641 -824.646)" fill="url(#linear-gradient-3)"/>
    <path id="Path_57" data-name="Path 57" d="M4740.553,875.644a2.712,2.712,0,0,1-.951,3.1s-2.619,1.9-4.285-.478a3.429,3.429,0,0,1-.718-2.379l.241-5.239-.241-3.809v-3.809s.241-4.525.241-4.761l1.429-12.617s-3.573,2.857-6.191-.956a13.631,13.631,0,0,1-1.429-5,24.732,24.732,0,0,1-.238-4.764,4.952,4.952,0,0,1-.238-4.761s1.9-1.9,4.047-.713c0,0,1.428.713.951,4.761a34.5,34.5,0,0,0,.241,6.665s.472,3.1,2.616.952l.713-.714s.479-4.522.24-5a30.921,30.921,0,0,1,.474-4.047s.718-3.57,3.572-3.092c0,0,2.144.235,1.9,3.092l-1.665,7.856s-1.909,8.1-1.667,8.334a102.174,102.174,0,0,0-1.427,11.426s-.479,7.382.233,9.76c0,0,.48,3.1,1.194,4.047" transform="translate(-4699.793 -814.071)" fill="url(#linear-gradient-4)"/>
  </g>
</svg>
